# xmcd
#
# Track frame offsets:
#	150
#	14315
#	28382
#	44677
#	63422
#	81267
#	93872
#	106704
#	121822
#	136130
#	151602
#	167917
#	179795
#	196605
#	213709
#	228747
#
# Disc length: 3255 seconds
#
# Revision: 0
# Processed by: cddbd v1.5.2PL0 Copyright (c) Steve Scherf et al.
# Submitted via: dBpowerAMP V4.0
#
DISCID=d70cb510
DTITLE=Sérgio Reis - Boiadeiro
DYEAR=1900
DGENRE=Sertanejo
TTITLE0=Rei do gado
TTITLE1=Poeira
TTITLE2=Os três boiadeiros
TTITLE3=Disparada
TTITLE4=Caminheiro
TTITLE5=Vendi os bois
TTITLE6=Km 45
TTITLE7=O menino da porteira
TTITLE8=No colo da noite
TTITLE9=Sina de violeiro
TTITLE10=Tocador de boi
TTITLE11=Cidades de Mato Grosso
TTITLE12=Amor e saudade
TTITLE13=João Carreiro
TTITLE14=Fazenda São Francisco
TTITLE15=Tchau, amor
EXTD=
EXTT0=
EXTT1=
EXTT2=
EXTT3=
EXTT4=
EXTT5=
EXTT6=
EXTT7=
EXTT8=
EXTT9=
EXTT10=
EXTT11=
EXTT12=
EXTT13=
EXTT14=
EXTT15=
PLAYORDER=
